<svg t="1762927738905" class="icon" viewBox="0 0 1024 1024" version="1.1" xmlns="http://www.w3.org/2000/svg" p-id="1170" width="200" height="200"><path d="M742.4 943.786667h-119.466667c-27.306667 0-49.493333-22.186667-49.493333-49.493334V660.48c0-10.24-8.533333-20.48-20.48-20.48h-93.866667c-10.24 0-20.48 8.533333-20.48 20.48v233.813333c0 27.306667-22.186667 49.493333-49.493333 49.493334h-119.466667c-58.026667 0-105.813333-47.786667-105.813333-105.813334V587.093333c0-3.413333-3.413333-6.826667-6.826667-6.826666H133.12c-25.6 0-49.493333-15.36-58.026667-39.253334s-5.12-51.2 13.653334-69.973333L460.8 98.986667c11.946667-11.946667 27.306667-18.773333 44.373333-18.773334s32.426667 6.826667 44.373334 18.773334l373.76 375.466666c18.773333 18.773333 23.893333 44.373333 13.653333 69.973334-10.24 23.893333-32.426667 39.253333-58.026667 39.253333H853.333333c-3.413333 0-6.826667 3.413333-6.826666 6.826667v250.88c1.706667 56.32-46.08 102.4-104.106667 102.4zM459.093333 595.626667h93.866667c35.84 0 63.146667 29.013333 63.146667 63.146666v233.813334c0 3.413333 3.413333 6.826667 6.826666 6.826666h119.466667c34.133333 0 61.44-27.306667 61.44-61.44V587.093333c0-27.306667 22.186667-49.493333 49.493333-49.493333h25.6c11.946667 0 17.066667-10.24 18.773334-11.946667 1.706667-3.413333 5.12-13.653333-5.12-22.186666l-373.76-375.466667c-6.826667-6.826667-20.48-6.826667-29.013334 0L119.466667 503.466667c-8.533333 8.533333-5.12 18.773333-5.12 22.186666 1.706667 3.413333 6.826667 11.946667 18.773333 11.946667h25.6c27.306667 0 49.493333 22.186667 49.493333 49.493333v250.88c0 34.133333 27.306667 61.44 61.44 61.44h119.466667c3.413333 0 6.826667-3.413333 6.826667-6.826666V660.48c0-35.84 29.013333-64.853333 63.146666-64.853333z" p-id="1171"></path></svg>